<svg width="445" height="418" viewBox="0 0 445 418" fill="none" xmlns="http://www.w3.org/2000/svg">
<g filter="url(#filter0_d_39_3301)">
<path d="M445.419 256.686L399.675 309.808L379.242 233.55L445.419 256.686Z" fill="#636AE8"/>
<path d="M216.216 187.91L187.043 186.77C170.105 186.109 155.086 175.686 148.542 160.049C145.698 153.29 143.552 146.49 143.659 141.425C143.728 138.275 144.669 135.815 147.019 134.602C152.979 131.513 157.92 133.44 161.908 137.542C164.655 140.37 166.948 144.213 168.838 148.21C174.999 161.283 187.082 170.586 201.296 173.2C210.849 174.985 219.459 176.56 219.459 176.56C219.811 176.624 220.149 176.39 220.214 176.038C220.278 175.685 220.044 175.347 219.692 175.283C219.692 175.283 211.082 173.699 201.533 171.923C187.73 169.385 175.995 160.352 170.01 147.657C168.061 143.529 165.671 139.564 162.832 136.641C158.437 132.117 152.983 130.045 146.414 133.449C143.665 134.875 142.443 137.697 142.363 141.395C142.252 146.603 144.421 153.602 147.345 160.551C154.086 176.651 169.551 187.382 186.993 188.061L216.166 189.202C216.403 189.221 216.632 189.108 216.762 188.908C216.892 188.709 216.902 188.454 216.788 188.245C216.674 188.035 216.455 187.905 216.216 187.906V187.91Z" fill="white"/>
<path d="M219.963 175.797C224.177 173.202 229.253 172.215 234.033 173.956C235.353 174.475 236.528 175.308 237.453 176.383C237.918 176.957 238.237 177.574 238.142 178.194C238.048 178.648 237.79 179.051 237.418 179.328C236.578 180.048 235.698 179.928 234.862 179.554C233.812 179.09 232.819 178.269 231.905 177.759C229.339 176.318 226.372 176.106 223.768 177.585C223.557 177.694 223.423 177.91 223.418 178.148C223.414 178.385 223.539 178.606 223.746 178.724C223.952 178.842 224.206 178.837 224.408 178.712C226.603 177.465 229.106 177.677 231.271 178.891C232.214 179.42 233.258 180.26 234.335 180.741C235.62 181.312 236.947 181.423 238.254 180.321C238.978 179.71 239.327 179.048 239.425 178.391C239.512 177.71 239.375 177.019 239.033 176.423C238.149 174.756 235.923 173.273 234.486 172.748C229.316 170.869 223.833 171.908 219.282 174.701C218.977 174.889 218.881 175.289 219.069 175.595C219.257 175.9 219.657 175.996 219.963 175.808V175.797Z" fill="white"/>
<path d="M224.145 178.755C227.925 179.872 232.15 182.033 233.261 186.052C233.54 187.058 233.782 188.089 233.422 189.104C232.946 190.446 231.482 191.508 230.243 190.479C229.798 190.11 229.613 189.482 229.466 188.831C229.279 188.014 229.174 187.151 228.958 186.493C228.441 184.931 227.259 183.73 226.205 182.514C225.964 182.284 225.588 182.274 225.335 182.49C225.082 182.707 225.034 183.08 225.224 183.354C226.169 184.442 227.263 185.492 227.725 186.89C227.977 187.65 228.065 188.703 228.332 189.62C228.542 190.368 228.882 191.027 229.416 191.47C231.411 193.127 233.878 191.68 234.645 189.528C235.096 188.255 234.855 186.96 234.512 185.7C233.28 181.248 228.689 178.738 224.512 177.51C224.286 177.431 224.036 177.483 223.86 177.645C223.684 177.807 223.611 178.053 223.671 178.284C223.73 178.516 223.912 178.696 224.145 178.753V178.755Z" fill="white"/>
<path d="M225.111 183.041C226.02 185.493 226.659 187.297 225.237 189.792C224.973 190.255 224.599 190.646 224.149 190.933C223.795 191.143 223.391 191.254 223.009 191.021C222.726 190.848 222.686 190.494 222.65 190.137C222.591 189.563 222.635 188.95 222.587 188.509C222.404 186.884 221.638 185.447 220.789 184.078C220.594 183.79 220.207 183.708 219.911 183.891C219.615 184.074 219.516 184.457 219.687 184.761C220.435 185.966 221.138 187.222 221.298 188.652C221.356 189.194 221.285 189.99 221.415 190.66C221.537 191.29 221.816 191.815 222.335 192.13C222.953 192.508 223.717 192.558 224.378 192.264C225.218 191.924 225.966 191.134 226.365 190.433C228.016 187.537 227.383 185.439 226.329 182.589C226.205 182.253 225.831 182.081 225.494 182.206C225.158 182.331 224.987 182.704 225.111 183.041Z" fill="white"/>
<path d="M335.528 193.676C345.423 176.539 339.552 154.625 322.414 144.73C305.277 134.835 283.364 140.706 273.469 157.843L335.528 193.676Z" fill="#22CCB2"/>
<path d="M164.897 149.701C155.594 133.587 134.989 128.065 118.875 137.369C102.761 146.672 97.2393 167.277 106.543 183.391L164.897 149.701Z" fill="#636AE8"/>
<path d="M337.665 119.631C337.665 119.631 322.809 125.899 312.855 116.808C302.355 107.218 308.191 100.559 312.11 100.151C323.7 98.9585 337.665 119.631 337.665 119.631Z" fill="white"/>
<path d="M268.958 209.226L253.485 217.353C249.976 219.193 246.838 221.601 244.396 224.617C241.954 227.632 240.034 231.018 238.97 234.8C237.905 238.582 237.519 242.419 238.02 246.203C238.522 249.987 239.65 253.643 241.632 256.959L275.57 313.737L279.262 320.392L292.576 313.008L288.885 306.351L258.682 247.501C258.157 246.476 257.977 245.335 257.899 244.212C257.821 243.088 258.109 242.032 258.47 240.978C258.831 239.924 259.508 239.088 260.228 238.317C260.948 237.547 261.855 237.057 262.817 236.637L278.777 229.535L288.924 224.623L279.099 204.331L268.958 209.226Z" fill="#7F55E0"/>
<path d="M295.174 225.036L281.804 250.348C280.504 252.807 279.584 255.426 279.361 258.143C279.139 260.86 279.301 263.588 280.172 266.205C281.044 268.821 282.272 271.245 284.057 273.244C285.842 275.243 287.89 276.988 290.344 278.15L334.222 298.887L340.969 302.407L348.006 288.906L341.261 285.386L299.133 261.285L299.055 260.718L299.379 260.52L314.681 236.332L320.332 226.578L300.823 215.276L295.174 225.036Z" fill="#7F55E0"/>
<path d="M286.198 333.98L284.709 330.267L283.157 325.128L293.434 322.024L294.986 327.163L296.475 334.314L297.555 337.888L283.023 345.053L279.887 346.876L276.248 340.605L279.383 338.785L286.198 333.98Z" fill="#22CCB2"/>
<path d="M280.021 352.078L298.787 342.393C299.341 342.088 299.551 341.398 299.261 340.837C298.971 340.275 298.287 340.047 297.718 340.322L278.952 350.007C278.398 350.312 278.188 351.002 278.478 351.563C278.768 352.125 279.452 352.353 280.021 352.078Z" fill="white"/>
<path d="M283.986 330.281C284.903 330.148 285.773 329.781 286.684 329.636C287.322 329.534 287.756 328.934 287.654 328.296C287.552 327.658 286.952 327.224 286.315 327.326C285.416 327.469 284.557 327.836 283.65 327.969C283.012 328.061 282.57 328.654 282.663 329.291C282.755 329.929 283.348 330.371 283.986 330.279V330.281Z" fill="white"/>
<path d="M285.273 334.269C286.258 334.269 287.249 334.321 288.234 334.288C288.876 334.267 289.381 333.73 289.36 333.087C289.34 332.445 288.803 331.941 288.16 331.961C287.19 331.992 286.218 331.931 285.25 331.942C284.607 331.948 284.091 332.474 284.098 333.117C284.104 333.759 284.63 334.275 285.273 334.269Z" fill="white"/>
<path d="M355.078 306.184L351.401 304.611L346.67 302.074L351.744 292.616L356.475 295.15L362.584 299.155L365.874 300.921L360.662 316.262L359.732 319.765L352.726 317.904L353.657 314.403L355.078 306.184Z" fill="#22CCB2"/>
<path d="M363.492 323.357L369.918 303.239C370.09 302.634 369.75 302.002 369.151 301.811C368.552 301.62 367.909 301.939 367.698 302.531L361.274 322.647C361.078 323.26 361.416 323.915 362.028 324.111C362.641 324.307 363.296 323.97 363.492 323.357Z" fill="white"/>
<path d="M350.904 305.131C351.458 304.389 351.813 303.514 352.355 302.768C352.732 302.246 352.615 301.517 352.093 301.14C351.571 300.762 350.842 300.879 350.465 301.401C349.929 302.14 349.581 303.005 349.035 303.74C348.773 304.073 348.712 304.521 348.876 304.911C349.04 305.301 349.402 305.571 349.823 305.617C350.244 305.663 350.656 305.476 350.9 305.131H350.904Z" fill="white"/>
<path d="M354.627 307.041C355.318 306.338 356.064 305.682 356.727 304.962C357.167 304.494 357.144 303.757 356.676 303.317C356.207 302.877 355.47 302.9 355.03 303.368C354.367 304.076 353.634 304.721 352.958 305.414C352.65 305.707 352.527 306.145 352.637 306.555C352.747 306.966 353.071 307.284 353.484 307.385C353.897 307.486 354.332 307.354 354.619 307.041H354.627Z" fill="white"/>
<path d="M110.789 333.373L114.516 338.356L117.532 341.618L111.011 347.649L107.996 344.388L99.5034 336.939L96.4395 333.627L103.449 321.85L107.198 316.449L118.004 323.95L114.254 329.352L110.789 333.373Z" fill="#636AE8"/>
<path d="M111.4 351.885L94.5857 336.671C94.1346 336.285 93.4586 336.329 93.0605 336.769C92.6625 337.209 92.6869 337.886 93.1157 338.296L109.933 353.508C110.381 353.914 111.073 353.88 111.479 353.432C111.885 352.983 111.851 352.291 111.403 351.885H111.4Z" fill="white"/>
<path d="M116.362 327.442C115.327 326.929 114.441 326.157 113.422 325.636C112.884 325.361 112.225 325.574 111.95 326.113C111.675 326.651 111.889 327.31 112.427 327.585C113.46 328.112 114.355 328.889 115.4 329.403C115.754 329.603 116.189 329.59 116.53 329.37C116.872 329.151 117.063 328.76 117.028 328.355C116.993 327.951 116.736 327.599 116.362 327.442Z" fill="white"/>
<path d="M112.944 331.595C111.785 331.207 110.594 330.898 109.443 330.487C109.073 330.342 108.653 330.41 108.347 330.664C108.041 330.918 107.896 331.318 107.97 331.709C108.044 332.1 108.324 332.42 108.702 332.545C109.867 332.965 111.073 333.277 112.247 333.67C112.82 333.863 113.44 333.554 113.633 332.981C113.825 332.408 113.517 331.788 112.944 331.595Z" fill="white"/>
<path d="M233.35 299.882L238.753 296.793L242.359 294.202L247.546 301.413L243.938 304.004L235.505 311.52L231.842 314.154L221.015 305.754L216.113 301.367L224.883 291.566L229.784 295.951L233.35 299.882Z" fill="#636AE8"/>
<path d="M251.799 301.53L234.631 316.352C234.173 316.748 234.123 317.44 234.519 317.898C234.915 318.357 235.608 318.407 236.066 318.011L253.225 303.185C253.535 302.933 253.683 302.533 253.612 302.141C253.541 301.748 253.262 301.425 252.884 301.298C252.506 301.171 252.088 301.26 251.795 301.53H251.799Z" fill="white"/>
<path d="M228.157 293.622C227.527 294.588 226.645 295.371 226.001 296.324C225.662 296.825 225.793 297.505 226.294 297.844C226.794 298.182 227.474 298.051 227.813 297.551C228.464 296.591 229.346 295.799 229.984 294.821C230.218 294.495 230.254 294.067 230.078 293.706C229.903 293.345 229.544 293.109 229.144 293.091C228.743 293.073 228.364 293.276 228.157 293.62V293.622Z" fill="white"/>
<path d="M231.839 297.513C231.311 298.615 230.86 299.76 230.31 300.852C230.037 301.391 230.252 302.05 230.792 302.323C231.331 302.596 231.99 302.38 232.263 301.841C232.821 300.736 233.281 299.577 233.815 298.46C234.054 297.918 233.82 297.284 233.286 297.029C232.752 296.773 232.111 296.987 231.839 297.513Z" fill="white"/>
<path d="M273.43 206.831L301.078 242.943L314.89 235.822L325.993 219.841L281.788 203.595L273.43 206.831Z" fill="white"/>
<path d="M290.035 184.236L278.905 195.746C278.709 195.943 278.429 196.031 278.156 195.981C277.882 195.93 277.652 195.748 277.54 195.494L269.98 177.764C269.812 177.483 269.823 177.13 270.007 176.86C270.191 176.59 270.516 176.452 270.838 176.505C271.16 176.558 271.423 176.793 271.511 177.108L278.585 193.686L289.766 182.115C289.968 181.912 290.259 181.826 290.538 181.886C290.818 181.947 291.047 182.145 291.148 182.413L297.448 200.005L309.823 187.478C310.014 187.29 310.285 187.204 310.549 187.248C310.814 187.293 311.042 187.461 311.163 187.701L320.781 207.602C320.912 208.002 320.727 208.438 320.348 208.621C319.969 208.804 319.513 208.678 319.281 208.327L310.178 189.488L297.702 202.117C297.499 202.317 297.209 202.4 296.931 202.338C296.654 202.277 296.426 202.079 296.326 201.813L290.035 184.236Z" fill="white"/>
<path d="M134.514 181.87C136.553 179.482 138.004 176.362 138.216 172.342C138.239 171.915 138.604 171.587 139.031 171.61C139.458 171.632 139.787 171.997 139.764 172.424C139.522 177.019 137.805 180.543 135.421 183.197C137.571 186.952 136.818 190.967 134.896 194.42C132.937 197.941 129.766 200.856 127.441 202.24C126.372 202.87 125.236 203.137 124.121 203.576C123.723 203.733 123.272 203.537 123.115 203.139C122.958 202.741 123.154 202.29 123.552 202.133C124.587 201.726 125.652 201.503 126.649 200.907C128.798 199.628 131.729 196.917 133.542 193.666C135.135 190.799 135.868 187.488 134.283 184.354C132.239 186.218 129.865 187.683 127.284 188.674C126.053 189.159 124.514 189.745 123.054 189.798C121.408 189.856 119.845 189.296 118.797 187.366C118.14 186.152 118.354 184.865 119.007 183.701C119.86 182.175 121.473 180.891 122.273 180.44C125.898 178.397 131.368 178.052 134.52 181.87H134.514ZM133.441 183.01C130.822 179.65 126.116 180.049 123.029 181.79C122.374 182.16 121.053 183.208 120.356 184.457C119.971 185.146 119.77 185.906 120.16 186.627C121.013 188.195 122.378 188.395 123.73 188.17C124.78 187.996 125.83 187.578 126.717 187.231C129.211 186.277 131.494 184.843 133.437 183.01H133.441Z" fill="white"/>
<path d="M274.519 64.2864C274.225 59.8953 273.095 54.8805 270.273 51.3777C269.794 50.7855 268.788 49.6809 267.77 49.2063C266.867 48.7863 265.955 48.7863 265.216 49.5927C264.777 50.0856 264.508 50.7059 264.448 51.363C264.377 52.2241 264.464 53.0908 264.704 53.9208C265.374 56.4744 266.329 58.9314 266.934 61.5018C266.991 61.7467 267.175 61.9425 267.416 62.0153C267.657 62.088 267.918 62.0268 268.102 61.8546C268.285 61.6824 268.363 61.4254 268.305 61.1805C267.698 58.5975 266.739 56.1279 266.067 53.5638C265.909 53.0076 265.827 52.4326 265.823 51.8544C265.798 51.3828 265.947 50.9185 266.243 50.5503C266.508 50.2626 266.844 50.3298 267.169 50.4831C267.992 50.8653 268.784 51.783 269.168 52.2618C271.816 55.5462 272.831 60.2628 273.106 64.3809C273.146 64.758 273.476 65.0362 273.855 65.0108C274.233 64.9853 274.524 64.6654 274.513 64.2864H274.519Z" fill="white"/>
<path d="M271.555 66.6748C271.002 65.3455 270.458 64.0099 269.69 62.7898C268.881 61.5408 267.661 60.6132 266.242 60.1669C265.265 59.8771 264.286 59.9086 263.484 60.3307C262.63 60.778 261.934 61.6768 261.71 63.2245C261.512 64.5706 261.97 65.9734 262.795 67.2544C263.965 68.9896 265.54 70.4133 267.384 71.4019C268.188 71.8159 269.064 72.0725 269.965 72.1579C270.748 72.1999 271.462 72.0067 271.943 71.5006C272.13 71.3206 272.204 71.052 272.134 70.8018C272.064 70.5515 271.862 70.3599 271.608 70.3032C271.355 70.2465 271.09 70.3338 270.92 70.5304C270.71 70.7509 270.383 70.7698 270.045 70.7509C269.339 70.6819 268.654 70.4773 268.027 70.1482C266.4 69.2769 265.01 68.021 263.98 66.49C263.35 65.5135 262.953 64.4551 263.102 63.4282C263.243 62.4601 263.606 61.8574 264.139 61.576C264.635 61.3177 265.24 61.3387 265.843 61.5172C266.936 61.8622 267.874 62.5773 268.497 63.5395C269.224 64.6945 269.732 65.9587 270.255 67.2145C270.404 67.5735 270.815 67.7436 271.174 67.5946C271.533 67.4456 271.704 67.0338 271.555 66.6748Z" fill="white"/>
<path d="M262.336 65.0556C261.713 64.94 261.078 64.8998 260.446 64.9359C258.249 65.1711 257.338 67.5567 257.808 69.4572C258.18 70.9692 260.282 73.3926 262.499 74.4657C264.152 75.2637 265.836 75.3057 267.019 74.0772C267.287 73.796 267.277 73.3503 266.996 73.0818C266.714 72.8133 266.269 72.8237 266 73.1049C265.248 73.8924 264.165 73.7055 263.113 73.1973C261.279 72.3111 259.484 70.3686 259.175 69.1191C258.894 67.9851 259.284 66.4773 260.595 66.3366C261.116 66.3121 261.637 66.3509 262.149 66.4521C262.526 66.4897 262.865 66.2229 262.918 65.8477C262.97 65.4726 262.717 65.1229 262.344 65.0556H262.336Z" fill="white"/>
<path d="M264.52 82.5397C267.341 102.824 272.849 123.794 278.737 143.492C278.846 143.857 279.231 144.064 279.595 143.955C279.96 143.846 280.167 143.462 280.058 143.097C274.191 123.464 268.697 102.567 265.885 82.3486C265.833 81.9716 265.484 81.7089 265.107 81.7616C264.73 81.8144 264.468 82.1627 264.52 82.5397Z" fill="white"/>
<path d="M272.963 63.9078C281.165 86.2245 290.183 113.21 296.844 138.586C296.941 138.954 297.318 139.174 297.686 139.077C298.054 138.98 298.274 138.603 298.177 138.235C291.499 112.825 282.474 85.7856 274.256 63.4311C274.125 63.0739 273.728 62.891 273.371 63.0227C273.014 63.1543 272.831 63.5506 272.963 63.9078Z" fill="white"/>
<path d="M313.679 115.462C308.929 120.645 308.068 125.523 309.479 129.152C310.911 132.827 314.71 135.303 319.462 135.59C321.062 135.687 322.774 135.28 324.275 134.765C327.793 133.566 330.006 131.3 331.672 128.551C333.268 125.916 334.349 122.827 335.641 119.855C335.795 119.498 335.632 119.084 335.275 118.929C334.919 118.774 334.504 118.938 334.349 119.294C333.089 122.205 332.039 125.237 330.466 127.823C328.967 130.296 326.986 132.352 323.82 133.434C322.486 133.889 320.968 134.274 319.548 134.186C315.401 133.934 312.041 131.846 310.791 128.639C309.531 125.387 310.455 121.061 314.714 116.415C314.977 116.129 314.959 115.683 314.672 115.42C314.386 115.157 313.94 115.175 313.677 115.462H313.679Z" fill="white"/>
<path d="M139.503 111.061C142.38 117.264 140.616 125.043 133.894 125.519C132.77 125.599 131.571 125.242 130.517 124.822C127.974 123.808 126.393 121.882 125.189 119.572C123.929 117.136 123.077 114.28 122.054 111.538C121.927 111.205 121.555 111.037 121.221 111.161C120.887 111.286 120.716 111.656 120.838 111.991C121.888 114.784 122.751 117.691 124.038 120.169C125.387 122.766 127.188 124.902 130.036 126.038C131.269 126.529 132.674 126.916 133.986 126.823C141.622 126.282 143.949 117.583 140.679 110.525C140.588 110.305 140.383 110.152 140.146 110.127C139.909 110.103 139.677 110.21 139.543 110.407C139.408 110.605 139.393 110.859 139.503 111.071V111.061Z" fill="white"/>
<path d="M121.636 111.253C120.145 111.194 118.471 110.917 117.392 109.808C115.861 108.233 115.8 105.188 118.037 104.273C119.051 103.853 120.137 104.101 121.187 104.168C121.533 104.174 121.823 103.907 121.845 103.561C121.868 103.215 121.615 102.913 121.271 102.874C120.023 102.792 118.751 102.58 117.541 103.084C114.444 104.344 114.339 108.544 116.457 110.724C117.768 112.07 119.769 112.488 121.581 112.559C121.819 112.579 122.048 112.466 122.178 112.266C122.308 112.066 122.317 111.812 122.204 111.602C122.09 111.393 121.87 111.263 121.632 111.264L121.636 111.253Z" fill="white"/>
<path d="M337.907 119.67C337.907 119.67 327.575 110.496 324.677 107.268C316.09 97.696 332.47 89.1721 336.875 102.203C339.314 109.418 338.148 115.107 337.904 119.67H337.907Z" fill="white"/>
<path d="M330.662 127.714C335.557 125.146 341.595 121.345 343.838 116.275C344.94 113.787 344.138 110.185 340.637 111.712C337.892 112.907 336.492 115.538 335.19 117.987C333.812 120.574 330.662 127.714 330.662 127.714Z" fill="white"/>
<path d="M356.648 223.436C364.391 213.286 367.188 198.496 364.811 185.821C362.196 171.843 353.072 158.84 339.787 154.495C333.462 152.426 326.666 154.986 324.222 161.202C321.778 167.418 325.272 173.416 330.831 177.001C339.308 182.461 343.601 184.808 346.322 191.887C349.403 199.899 349.993 209.072 346.169 216.682C346.043 216.912 346.053 217.192 346.194 217.413C346.335 217.633 346.586 217.759 346.847 217.741C347.108 217.723 347.339 217.563 347.448 217.325C351.451 209.359 350.881 199.758 347.658 191.373C344.825 184.004 340.432 181.488 331.606 175.797C326.631 172.591 323.38 167.257 325.553 161.727C327.716 156.229 333.743 154.027 339.342 155.847C352.152 160.035 360.884 172.605 363.404 186.077C365.714 198.37 363.007 212.717 355.506 222.562C355.267 222.876 355.328 223.325 355.642 223.564C355.956 223.803 356.405 223.742 356.644 223.427L356.648 223.436Z" fill="white"/>
<path d="M340.907 225.43C340.002 225.363 339.063 225.308 338.156 225.152C336.719 224.905 335.367 224.405 334.307 223.317C332.65 221.614 333.362 218.634 335.298 217.563C336.432 216.933 337.961 217.019 339.176 217.175C341.134 217.429 343.063 217.87 344.937 218.491C345.302 218.625 345.494 219.025 345.37 219.393C345.245 219.761 344.85 219.963 344.479 219.848C342.695 219.254 340.858 218.832 338.994 218.588C338.055 218.468 336.866 218.325 335.991 218.811C334.811 219.464 334.311 221.272 335.331 222.311C336.171 223.174 337.261 223.538 338.399 223.735C339.672 223.945 341.01 223.966 342.215 224.1C342.616 224.14 342.916 224.485 342.9 224.888C342.891 225.037 342.844 225.182 342.763 225.308C342.692 225.419 342.518 225.587 342.452 225.69C342.329 225.888 342.198 226.079 342.064 226.268C341.622 226.887 341.146 227.48 340.636 228.044C340.279 228.441 339.909 228.827 339.552 229.222C338.815 230.037 337.589 231.499 337.064 232.975C336.778 233.781 336.69 234.592 337.188 235.245C337.357 235.425 337.594 235.523 337.841 235.516C338.185 235.537 338.529 235.487 338.853 235.369C339.666 235.067 340.394 234.445 341.079 233.758C341.839 232.998 342.549 232.15 343.211 231.476C343.652 231.03 344.051 230.549 344.489 230.094C344.517 230.062 344.813 229.709 344.886 229.646C345.091 229.454 345.393 229.404 345.649 229.521C345.806 229.584 345.94 229.695 346.031 229.838C346.141 230.006 346.181 230.209 346.144 230.407C346.094 230.62 345.984 230.815 345.827 230.967C345.669 231.099 345.518 231.239 345.376 231.387C345.006 231.908 344.674 232.471 344.355 233.027C343.843 233.922 343.19 234.917 342.816 235.944C342.499 236.824 342.396 237.74 342.889 238.647C342.991 238.827 343.193 238.925 343.397 238.895C343.639 238.874 343.875 238.814 344.097 238.716C345.468 238.164 346.321 236.616 347.133 235.415C347.491 234.908 347.817 234.379 348.11 233.832C348.219 233.622 348.32 233.395 348.423 233.181C348.484 233.067 348.633 232.761 348.664 232.725C348.852 232.449 349.214 232.353 349.515 232.498C349.87 232.633 350.05 233.029 349.918 233.385C349.483 234.855 348.696 236.534 348.362 238.175C348.074 239.605 348.152 241.014 349.343 242.192C349.916 242.757 350.603 242.534 351.212 242.121C351.992 241.555 352.638 240.823 353.102 239.978C354.849 236.713 355.659 232.578 354.467 229.002C354.272 228.307 354.042 227.623 353.776 226.952C353.665 226.636 353.474 226.353 353.221 226.133C353.001 225.994 352.873 225.746 352.889 225.486C352.904 225.226 353.059 224.994 353.294 224.882C353.529 224.769 353.807 224.793 354.019 224.945C354.495 225.314 354.862 225.805 355.082 226.366C355.367 227.081 355.615 227.81 355.825 228.55C357.138 232.494 356.289 237.055 354.355 240.655C353.803 241.684 352.614 243.101 351.352 243.679C350.327 244.143 349.252 244.122 348.335 243.212C346.833 241.742 346.596 240 346.898 238.21C346.268 238.996 345.523 239.68 344.628 240.046C343.561 240.466 342.295 240.531 341.636 239.34C340.915 238.038 341.006 236.721 341.468 235.455C341.489 235.401 341.51 235.342 341.533 235.285C340.901 235.895 340.16 236.381 339.349 236.717C338.718 236.951 338.037 237.015 337.375 236.902C336.851 236.815 336.378 236.537 336.047 236.121C335.249 235.071 335.256 233.79 335.714 232.502C336.304 230.841 337.66 229.184 338.488 228.269C338.847 227.874 339.214 227.488 339.571 227.091C340.045 226.567 340.487 226.016 340.896 225.44L340.907 225.43Z" fill="white"/>
<path d="M259.069 70.052C258.567 70.081 258.088 70.2701 257.702 70.5917C256.043 72.0617 256.41 74.3276 257.58 75.9425C258.571 77.3138 260.375 78.3092 262.057 78.2924C262.775 78.2924 263.42 78.053 264.115 77.9186C264.497 77.8444 264.746 77.4749 264.672 77.0933C264.597 76.7117 264.228 76.4626 263.846 76.5368C263.235 76.6544 262.672 76.877 262.04 76.8833C260.78 76.8959 259.457 76.1378 258.72 75.1172C257.983 74.0966 257.559 72.5972 258.636 71.6459C258.784 71.5296 258.965 71.464 259.153 71.459C259.413 71.4563 259.651 71.3104 259.771 71.0795C259.891 70.8486 259.875 70.5702 259.728 70.3553C259.581 70.1404 259.328 70.0238 259.069 70.052Z" fill="white"/>
<path d="M348.611 101.781C351.005 99.0949 353.916 96.6946 355.938 93.7042C356.156 93.3824 356.072 92.9447 355.75 92.7267C355.429 92.5086 354.991 92.5928 354.773 92.9146C352.784 95.8546 349.913 98.2045 347.559 100.844C347.301 101.134 347.326 101.579 347.616 101.838C347.906 102.096 348.351 102.071 348.609 101.781H348.611Z" fill="white"/>
<path d="M353.904 110.987C359.343 109.61 364.87 107.808 370.372 106.787C370.631 106.753 370.849 106.579 370.94 106.335C371.031 106.091 370.98 105.816 370.808 105.621C370.635 105.426 370.37 105.341 370.116 105.401C364.585 106.424 359.026 108.232 353.56 109.616C353.198 109.724 352.986 110.098 353.078 110.464C353.17 110.83 353.534 111.059 353.904 110.983V110.987Z" fill="white"/>
<path d="M352.827 120.899C356.569 121.821 360.486 123.066 364.148 124.238C364.513 124.338 364.892 124.131 365.005 123.769C365.118 123.408 364.925 123.022 364.568 122.896C360.878 121.716 356.928 120.462 353.157 119.536C352.779 119.443 352.397 119.673 352.304 120.05C352.211 120.428 352.441 120.81 352.818 120.903L352.827 120.899Z" fill="white"/>
<path d="M130.323 263.848C126.193 261.731 102.139 248.518 92.496 223.383C89.2704 214.983 89.7555 208.53 91.9731 203.624C97.1412 192.189 111.869 189.107 111.869 189.107C112.194 189.08 112.489 189.3 112.556 189.62C112.623 189.94 112.442 190.26 112.133 190.367C112.133 190.367 98.0736 193.258 93.1533 204.147C91.0533 208.805 90.6438 214.924 93.7035 222.904C104.099 249.988 131.487 262.978 131.487 262.978C131.648 263.054 131.77 263.192 131.827 263.361C131.881 263.529 131.865 263.712 131.783 263.869L107.633 309.019L123.696 319.17L146.141 281.765C151.937 272.109 152.375 260.155 147.302 250.101L129.62 215.065C129.505 214.835 129.535 214.559 129.698 214.359L138.047 204.208C138.279 203.949 138.674 203.919 138.942 204.14C139.21 204.36 139.257 204.753 139.049 205.031L130.979 214.857L148.469 249.507C153.745 259.958 153.289 272.385 147.262 282.422L124.469 320.401C124.377 320.55 124.231 320.657 124.061 320.699C123.891 320.738 123.713 320.708 123.566 320.615L106.432 309.787C106.144 309.605 106.046 309.232 106.207 308.933L130.323 263.848Z" fill="white"/>
<path d="M220.946 284.694L178.02 235.157C169.19 224.966 163.74 211.522 157.44 201.127C153.333 194.354 148.87 188.882 142.765 186.588C142.446 186.452 142.291 186.089 142.413 185.764C142.535 185.438 142.891 185.267 143.221 185.375C149.576 187.76 154.273 193.405 158.551 200.455C164.822 210.793 170.217 224.172 178.999 234.307L222.273 284.245C222.474 284.477 222.485 284.819 222.299 285.064L212.378 298.025C212.27 298.163 212.112 298.253 211.937 298.275C211.761 298.295 211.585 298.243 211.448 298.13L157.339 253.541C157.063 253.313 157.023 252.904 157.251 252.627C157.479 252.35 157.888 252.311 158.165 252.539L211.755 296.71L220.946 284.694Z" fill="white"/>
<path d="M118.453 100.399C118.453 103.692 128.863 111.588 140.073 110.996C150.174 110.462 151.744 94.1432 140.073 91.2431C126.288 87.818 118.453 100.399 118.453 100.399Z" fill="white"/>
<path d="M122.267 103.586C121.241 103.564 120.216 103.676 119.22 103.92C116.63 104.514 114.621 107.07 116.676 109.59C118.356 111.652 124.974 112.429 122.571 116.501C120.921 119.296 116.868 118.981 114.205 118.358C107.875 116.862 103.346 111.507 102.394 105.367C101.443 99.2265 106.743 92.8845 112.718 91.5615C117.863 90.4233 124.461 92.2209 125.797 97.8468L122.267 103.586Z" fill="white"/>
<path d="M108.507 109.96C102.519 110.294 97.4248 111.464 92.8468 115.475C87.664 120.019 86.9185 128.529 93.4999 132.296C98.2606 135.026 104.983 133.766 109.25 130.662C110.737 129.583 112.266 128.415 113.337 126.943C113.677 126.462 113.976 125.954 114.231 125.423C114.355 125.173 114.636 124.392 114.584 124.665C114.195 126.67 114.015 128.804 115.395 130.53C118.383 134.268 124.307 131.79 125.649 128.02C127.278 123.447 124.954 119.694 123.062 115.763L108.507 109.96Z" fill="white"/>
<path d="M136.426 138.102C136.432 138.3 136.427 138.499 136.411 138.696C136.316 139.683 135.921 140.618 135.279 141.374C134.798 141.94 134.098 142.274 133.355 142.294C131.65 142.315 130.592 141.319 129.995 139.91C129.212 138.041 129.309 135.401 129.666 133.934C129.711 133.698 129.881 133.507 130.11 133.436C130.338 133.364 130.587 133.425 130.758 133.592C130.929 133.76 130.993 134.008 130.926 134.238C130.617 135.498 130.506 137.793 131.19 139.408C131.575 140.322 132.228 141.008 133.332 140.996C133.849 140.996 134.237 140.651 134.523 140.236C134.852 139.741 135.054 139.172 135.111 138.581C135.137 138.149 135.115 137.715 135.046 137.287C135.025 137.119 134.87 136.815 134.836 136.636C134.801 136.487 134.806 136.331 134.851 136.185C134.903 136.017 135.019 135.876 135.174 135.792C135.354 135.691 135.569 135.674 135.762 135.746C135.981 135.828 136.18 135.956 136.346 136.122C136.623 136.382 136.907 136.775 137.1 136.962C137.694 137.525 138.301 138.098 139.088 138.375C139.627 138.569 140.207 138.612 140.768 138.501C141.023 138.457 141.253 138.324 141.417 138.125C141.577 137.903 141.602 137.588 141.506 137.172C141.241 136.036 140.548 135.513 139.855 134.675C139.702 134.497 139.658 134.25 139.738 134.03C139.819 133.81 140.012 133.65 140.243 133.612C140.474 133.574 140.708 133.664 140.855 133.847C141.695 134.851 142.453 135.517 142.77 136.878C142.98 137.758 142.808 138.411 142.469 138.881C142.126 139.333 141.629 139.646 141.073 139.761C140.267 139.93 139.43 139.874 138.654 139.599C137.786 139.295 137.081 138.719 136.417 138.106L136.426 138.102Z" fill="white"/>
<path d="M41.5996 109.37C41.5996 109.37 46.0285 123.65 50.2495 137.253C55.4218 153.925 69.7906 166.085 87.0877 168.43C94.5553 169.455 101.878 169.74 106.878 168.283C110.429 167.25 112.84 165.343 113.506 162.313C115.093 155.087 111.681 150.355 106.175 147.283C102.615 145.296 98.1673 144.013 93.6754 143.198C79.8654 140.704 68.1037 131.707 62.0809 119.032C57.8809 110.266 54.1282 102.362 54.1282 102.362C54.0331 102.145 53.8279 101.998 53.5924 101.977C53.3569 101.955 53.1286 102.064 52.9962 102.26C52.8639 102.456 52.8487 102.708 52.9564 102.918C52.9564 102.918 56.7133 110.825 60.9091 119.59C67.1125 132.642 79.2239 141.905 93.4444 144.475C97.7914 145.263 102.098 146.493 105.542 148.415C110.53 151.204 113.68 155.477 112.239 162.035C111.672 164.612 109.543 166.158 106.517 167.038C101.651 168.453 94.528 168.142 87.262 167.145C70.4647 164.868 56.5112 153.059 51.4885 136.869C47.2675 123.265 42.8386 108.985 42.8386 108.985C42.7752 108.758 42.5931 108.582 42.363 108.528C42.133 108.473 41.8915 108.548 41.7327 108.723C41.5739 108.898 41.5229 109.146 41.5996 109.37Z" fill="white"/>
<path d="M42.175 108.313C37.345 109.399 32.2252 108.685 28.2604 105.485C27.1829 104.569 26.3452 103.404 25.8202 102.091C25.5682 101.4 25.4653 100.711 25.7551 100.155C25.9903 99.7555 26.3639 99.4566 26.8051 99.3147C27.8425 98.9115 28.6258 99.3147 29.2957 99.93C30.1357 100.707 30.814 101.807 31.5091 102.587C33.4705 104.781 36.2089 105.947 39.1531 105.394C39.497 105.32 39.7191 104.985 39.6536 104.639C39.5881 104.293 39.2589 104.063 38.9116 104.12C36.4294 104.586 34.132 103.574 32.4772 101.723C31.7569 100.917 31.0429 99.7851 30.1798 98.9787C29.1508 98.0211 27.9307 97.4856 26.3368 98.1051C25.4527 98.4495 24.9088 98.9619 24.6022 99.552C24.299 100.169 24.2047 100.868 24.3334 101.543C24.6295 103.406 26.2528 105.533 27.4435 106.493C31.7233 109.947 37.2463 110.749 42.4585 109.575C42.7763 109.471 42.9625 109.142 42.8886 108.815C42.8146 108.489 42.5047 108.273 42.1729 108.315L42.175 108.313Z" fill="white"/>
<path d="M39.1823 104.145C35.9735 101.865 32.6723 98.448 32.9243 94.2752C32.9873 93.2358 33.0944 92.1753 33.7643 91.3353C34.6505 90.2202 36.3788 89.691 37.2167 91.0665C37.5191 91.56 37.4876 92.213 37.4267 92.8766C37.3385 93.7166 37.1558 94.5567 37.1495 95.2539C37.1306 96.8982 37.8593 98.4185 38.462 99.9095C38.5256 100.153 38.7246 100.338 38.9724 100.384C39.2203 100.43 39.4721 100.328 39.6184 100.123C39.7646 99.9173 39.7788 99.6459 39.6548 99.4265C39.1151 98.0909 38.42 96.7427 38.4347 95.2706C38.4347 94.4684 38.7014 93.4437 38.7476 92.4924C38.7833 91.7154 38.6825 90.9825 38.3276 90.3924C36.9773 88.1769 34.1759 88.7355 32.7521 90.531C31.9121 91.581 31.7021 92.8914 31.6349 94.1976C31.3535 98.8071 34.8836 102.669 38.4347 105.193C38.6205 105.356 38.8828 105.4 39.1113 105.305C39.3397 105.211 39.4945 104.994 39.5105 104.748C39.5265 104.501 39.4009 104.266 39.1865 104.143L39.1823 104.145Z" fill="white"/>
<path d="M39.6577 99.7874C39.5947 97.1729 39.5758 95.2598 41.7283 93.3614C42.1283 93.0077 42.6095 92.7581 43.129 92.6348C43.5322 92.5508 43.9501 92.576 44.2357 92.9204C44.4457 93.1745 44.3701 93.5252 44.2882 93.8738C44.158 94.4345 43.9165 95.0015 43.8199 95.4341C43.465 97.0301 43.7233 98.6387 44.0824 100.21C44.186 100.53 44.5172 100.718 44.8452 100.642C45.1732 100.567 45.3891 100.253 45.3424 99.9197C45.0253 98.5379 44.767 97.1225 45.0799 95.7197C45.1996 95.1863 45.5251 94.4597 45.6196 93.7814C45.7078 93.1514 45.6196 92.5592 45.2269 92.1014C44.7652 91.5432 44.0585 91.2479 43.3369 91.3118C42.4339 91.3601 41.47 91.8641 40.8652 92.3975C38.362 94.6046 38.2801 96.7928 38.3452 99.8294C38.3539 100.188 38.6515 100.471 39.0099 100.463C39.3682 100.454 39.6517 100.156 39.643 99.7979L39.6577 99.7874Z" fill="white"/>
<path d="M100.277 87.0275L91.8161 80.0471C91.5093 79.7937 91.0552 79.8369 90.8018 80.1437C90.5483 80.4505 90.5916 80.9046 90.8984 81.158L99.3656 88.1363C99.5627 88.3116 99.8398 88.3651 100.088 88.2758C100.336 88.1865 100.516 87.9686 100.556 87.708C100.596 87.4473 100.491 87.1854 100.281 87.0254L100.277 87.0275Z" fill="white"/>
<path d="M111.052 79.3455L102.587 57.0477C102.445 56.6754 102.029 56.4883 101.657 56.6298C101.284 56.7713 101.097 57.1878 101.239 57.5601L109.706 79.8558C109.857 80.2125 110.263 80.3861 110.625 80.2488C110.987 80.1115 111.175 79.7125 111.052 79.3455Z" fill="white"/>
<path d="M126.479 76.9681L129.768 67.8793C129.863 67.6355 129.818 67.3595 129.651 67.1582C129.484 66.9569 129.221 66.8619 128.964 66.91C128.707 66.9582 128.496 67.1419 128.414 67.39L125.129 76.4788C125.034 76.7225 125.079 76.9985 125.246 77.1998C125.413 77.4011 125.676 77.4961 125.933 77.448C126.19 77.3998 126.401 77.2161 126.484 76.9681H126.479Z" fill="white"/>
<path d="M65.386 224.77C19.7719 246.574 2.90257 296.523 10.6579 336.509C14.545 356.564 24.6229 374.109 40.3351 384.389C56.0473 394.668 77.4085 397.707 103.904 388.652C137.206 377.272 159.707 345.984 180.357 317.493C180.6 317.157 180.525 316.687 180.189 316.443C179.852 316.2 179.382 316.275 179.139 316.611C158.668 344.854 136.431 375.949 103.417 387.23C77.4694 396.096 56.5534 393.19 41.1583 383.129C25.7632 373.068 15.9415 355.862 12.1321 336.223C4.49437 296.827 21.0949 247.603 66.0349 226.126C66.4095 225.947 66.5679 225.498 66.3887 225.124C66.2095 224.749 65.7606 224.591 65.386 224.77Z" fill="white"/>
<path d="M189.532 152.912C238.534 143.271 292.495 112.483 317.401 68.492C322.702 59.1281 328.435 45.476 329.71 32.393C330.568 23.573 329.397 14.9987 324.766 8.13803C321.652 3.51803 316.845 0.970733 311.465 -0.165367C303.548 -1.84537 294.388 -0.436267 287.768 1.81283C267.146 8.81843 244.962 28.739 239.846 51.0053C239.757 51.3933 239.999 51.7802 240.387 51.8695C240.775 51.9588 241.162 51.7167 241.251 51.3287C246.262 29.5034 268.028 10.028 288.232 3.16523C294.637 0.989633 303.504 -0.387967 311.167 1.23113C316.177 2.28113 320.673 4.63733 323.571 8.93393C328.019 15.5237 329.101 23.7641 328.275 32.2439C327.015 45.1211 321.366 58.5548 316.15 67.7717C291.437 111.437 237.87 141.935 189.255 151.499C188.873 151.583 188.628 151.957 188.703 152.341C188.778 152.725 189.147 152.979 189.532 152.912Z" fill="white"/>
<path d="M384.094 176.06C405.233 163.649 431.693 180.129 433.31 203.639C434.885 226.567 420.08 243.825 403.799 257.819C384.258 274.619 356.796 280.306 332.888 287.809C287.666 302.003 232 325.189 208.16 369.547C202.39 380.289 203.765 392.616 210.617 402.343C216.974 411.373 228.047 418.16 242.512 419.311C263.974 421.02 292.969 410.268 324.868 375.648C325.093 375.353 325.058 374.936 324.786 374.683C324.515 374.43 324.096 374.425 323.818 374.671C292.347 408.828 263.808 419.563 242.634 417.875C228.667 416.764 217.944 410.233 211.802 401.516C205.267 392.234 203.933 380.478 209.437 370.226C233.102 326.178 288.435 303.271 333.327 289.18C357.416 281.62 385.058 275.831 404.746 258.907C421.359 244.627 436.363 226.945 434.755 203.538C433.075 179.008 405.424 161.868 383.374 174.819C383.14 174.943 382.993 175.185 382.991 175.45C382.989 175.715 383.132 175.959 383.365 176.087C383.597 176.214 383.88 176.204 384.103 176.06H384.094Z" fill="white"/>
<path d="M60.1459 303.672C60.1148 302.659 59.9183 301.657 59.5642 300.707C59.1253 299.418 58.5562 298.214 58.2118 297.253C57.9619 296.551 57.8317 295.951 57.8737 295.499C57.8935 295.059 58.1161 294.654 58.4764 294.401C58.8597 294.157 59.3105 294.042 59.7637 294.071C60.4042 294.071 61.3282 294.252 62.6155 294.649C63.8031 294.982 64.9585 295.422 66.0679 295.961C66.2986 296.077 66.4502 296.307 66.4654 296.564C66.4807 296.822 66.3575 297.068 66.142 297.21C65.9266 297.352 65.6518 297.368 65.4211 297.253C64.3848 296.752 63.3061 296.344 62.1976 296.035C61.4886 295.797 60.7577 295.629 60.0157 295.535C59.7843 295.52 59.552 295.537 59.3248 295.583C59.3194 295.606 59.3152 295.629 59.3122 295.652C59.3091 295.73 59.314 295.807 59.3269 295.883C59.3799 296.188 59.4629 296.487 59.5747 296.776C60.295 298.792 61.912 301.829 61.5298 304.571C61.5072 304.816 61.3887 305.043 61.2001 305.201C60.9452 305.41 60.6008 305.473 60.2887 305.367C60.0037 305.271 59.7326 305.137 59.4823 304.97C59.2221 304.783 58.9443 304.621 58.6528 304.487C57.8128 304.212 56.4226 303.647 55.1374 303.42C54.7164 303.328 54.2838 303.3 53.8543 303.336C54.0349 303.803 54.2869 304.458 54.3121 304.512C54.7552 305.501 56.6095 307.757 57.5734 309.504C58.0984 310.455 58.3399 311.312 58.2223 311.848C58.1741 312.113 58.0298 312.352 57.817 312.518C57.5229 312.731 57.1451 312.792 56.7985 312.683C56.3122 312.517 55.8492 312.289 55.4209 312.005C55.1051 311.788 54.7619 311.615 54.4003 311.489C53.73 311.323 53.0474 311.211 52.3591 311.155C51.7281 311.083 51.0896 311.116 50.4691 311.251C50.2486 311.312 50.0932 311.373 50.0365 311.51C49.942 311.72 50.0365 312.007 50.1688 312.333C50.4649 313.101 51.0634 314.013 51.6745 314.968C52.2016 315.796 52.7728 316.594 53.3314 317.4C53.4906 317.611 53.5217 317.892 53.4123 318.132C53.3029 318.373 53.0706 318.534 52.8071 318.553C52.5436 318.571 52.291 318.444 52.1491 318.221C51.58 317.4 50.9962 316.585 50.4586 315.743C49.7929 314.693 49.1503 313.694 48.8248 312.854C48.5371 312.108 48.4951 311.453 48.7093 310.947C48.9044 310.505 49.2692 310.159 49.7215 309.989C50.2801 309.75 51.1558 309.63 52.4515 309.718C53.2181 309.781 53.9786 309.904 54.7258 310.086C55.276 310.216 56.0341 310.716 56.6767 311.075L56.725 311.1V311.073C56.4991 310.504 56.2133 309.962 55.8724 309.454C54.8392 307.814 53.3944 305.976 53.0017 305.102C52.9534 304.995 52.2835 303.387 52.2478 303.002C52.1989 302.694 52.3494 302.388 52.6237 302.238C53.3314 301.841 54.3331 301.805 55.3957 301.997C56.7502 302.238 58.2139 302.822 59.1022 303.11C59.4458 303.249 59.7732 303.425 60.0787 303.635L60.1459 303.672Z" fill="white"/>
<path d="M190.604 36.3348C190.69 36.0762 190.622 35.7915 190.429 35.5991C190.236 35.4067 189.951 35.3395 189.693 35.4255L172.053 41.3055C171.815 41.3835 171.635 41.5796 171.578 41.823C171.52 42.0665 171.594 42.3223 171.772 42.4983L183.532 54.2583C183.708 54.4361 183.963 54.5095 184.207 54.4521C184.45 54.3946 184.646 54.2146 184.724 53.9769L190.604 36.3348ZM173.605 42.3009L183.723 52.4187L188.782 37.242L173.605 42.3009Z" fill="white"/>
<path d="M168.908 372.847L188.451 376.551L172.613 392.393L168.908 372.847Z" fill="white"/>
<path d="M39.2997 211.498L26.3196 226.571L20.5215 204.931L39.2997 211.498Z" fill="#636AE8"/>
<path d="M352.791 343.553V349.91C352.791 350.307 353.113 350.63 353.511 350.63C353.909 350.63 354.232 350.307 354.232 349.91V343.553C354.232 343.155 353.909 342.833 353.511 342.833C353.113 342.833 352.791 343.155 352.791 343.553Z" fill="white"/>
<path d="M363.557 352.89H357.201C356.943 352.89 356.706 353.027 356.577 353.25C356.448 353.473 356.448 353.747 356.577 353.97C356.706 354.193 356.943 354.33 357.201 354.33H363.557C363.815 354.33 364.053 354.193 364.181 353.97C364.31 353.747 364.31 353.473 364.181 353.25C364.053 353.027 363.815 352.89 363.557 352.89Z" fill="white"/>
<path d="M352.791 357.321V363.677C352.791 363.935 352.928 364.172 353.151 364.301C353.374 364.43 353.649 364.43 353.871 364.301C354.094 364.172 354.232 363.935 354.232 363.677V357.321C354.232 356.923 353.909 356.6 353.511 356.6C353.113 356.6 352.791 356.923 352.791 357.321Z" fill="white"/>
<path d="M349.807 352.89H343.451C343.053 352.89 342.73 353.212 342.73 353.61C342.73 354.008 343.053 354.33 343.451 354.33H349.807C350.065 354.33 350.303 354.193 350.431 353.97C350.56 353.747 350.56 353.473 350.431 353.25C350.303 353.027 350.065 352.89 349.807 352.89Z" fill="white"/>
<path d="M210.892 215.519V221.867C210.877 222.134 211.011 222.386 211.24 222.523C211.468 222.661 211.754 222.661 211.982 222.523C212.211 222.386 212.345 222.134 212.33 221.867V215.511C212.345 215.244 212.211 214.992 211.982 214.855C211.754 214.717 211.468 214.717 211.24 214.855C211.011 214.992 210.877 215.244 210.892 215.511V215.519Z" fill="white"/>
<path d="M221.667 224.86H215.31C214.912 224.86 214.59 225.182 214.59 225.58C214.59 225.978 214.912 226.3 215.31 226.3H221.667C221.924 226.3 222.162 226.163 222.291 225.94C222.419 225.717 222.419 225.443 222.291 225.22C222.162 224.997 221.924 224.86 221.667 224.86Z" fill="white"/>
<path d="M210.892 229.283V235.639C210.877 235.906 211.011 236.158 211.24 236.295C211.468 236.433 211.754 236.433 211.982 236.295C212.211 236.158 212.345 235.906 212.33 235.639V229.283C212.345 229.016 212.211 228.764 211.982 228.627C211.754 228.489 211.468 228.489 211.24 228.627C211.011 228.764 210.877 229.016 210.892 229.283Z" fill="white"/>
<path d="M207.907 224.86H201.55C201.293 224.86 201.055 224.997 200.927 225.22C200.798 225.443 200.798 225.717 200.927 225.94C201.055 226.163 201.293 226.3 201.55 226.3H207.907C208.164 226.3 208.402 226.163 208.531 225.94C208.66 225.717 208.66 225.443 208.531 225.22C208.402 224.997 208.164 224.86 207.907 224.86Z" fill="white"/>
<path d="M25.6211 151.281V157.637C25.6211 158.035 25.9436 158.358 26.3414 158.358C26.7392 158.358 27.0617 158.035 27.0617 157.637V151.281C27.0617 150.883 26.7392 150.56 26.3414 150.56C25.9436 150.56 25.6211 150.883 25.6211 151.281Z" fill="white"/>
<path d="M36.3994 160.63H30.0406C29.6428 160.63 29.3203 160.952 29.3203 161.35C29.3203 161.748 29.6428 162.07 30.0406 162.07H36.3994C36.7972 162.07 37.1197 161.748 37.1197 161.35C37.1197 160.952 36.7972 160.63 36.3994 160.63Z" fill="white"/>
<path d="M25.6211 165.053V171.41C25.6211 171.807 25.9436 172.13 26.3414 172.13C26.7392 172.13 27.0617 171.807 27.0617 171.41V165.053C27.0617 164.795 26.9244 164.558 26.7015 164.429C26.4787 164.3 26.2041 164.3 25.9812 164.429C25.7584 164.558 25.6211 164.795 25.6211 165.053Z" fill="white"/>
<path d="M22.6396 160.63H16.2808C15.883 160.63 15.5605 160.952 15.5605 161.35C15.5605 161.748 15.883 162.07 16.2808 162.07H22.6396C23.0375 162.07 23.3599 161.748 23.3599 161.35C23.3599 160.952 23.0375 160.63 22.6396 160.63Z" fill="white"/>
<path d="M230.697 109.942L227.163 102.592C226.989 102.234 226.558 102.084 226.199 102.258C225.841 102.432 225.691 102.864 225.865 103.222L229.4 110.572C229.574 110.931 230.005 111.08 230.363 110.906C230.722 110.732 230.871 110.301 230.697 109.942ZM213.017 110.572L216.552 103.222C216.726 102.864 216.576 102.432 216.218 102.258C215.859 102.084 215.428 102.234 215.254 102.592L211.718 109.942C211.544 110.301 211.694 110.733 212.053 110.907C212.411 111.081 212.843 110.931 213.017 110.572ZM241.233 95.7337L233.289 93.9214C232.901 93.8332 232.515 94.0763 232.427 94.4642C232.339 94.8522 232.582 95.2381 232.97 95.3263L240.914 97.1386C241.302 97.2267 241.688 96.9837 241.776 96.5957C241.864 96.2078 241.621 95.8218 241.233 95.7337ZM201.503 97.1323L209.447 95.32C209.835 95.2312 210.078 94.8448 209.989 94.4569C209.901 94.0689 209.514 93.8263 209.126 93.9151L201.184 95.7274C200.796 95.8155 200.553 96.2015 200.641 96.5894C200.729 96.9774 201.115 97.2204 201.503 97.1323ZM204.83 79.7548L211.199 84.8347C211.51 85.0753 211.957 85.0217 212.202 84.7143C212.448 84.4068 212.401 83.9593 212.098 83.7091L205.724 78.6292C205.524 78.4547 205.245 78.404 204.997 78.4973C204.749 78.5905 204.572 78.8126 204.536 79.0754C204.501 79.3382 204.613 79.5991 204.827 79.7548H204.83ZM236.691 78.6292L230.319 83.7091C230.016 83.9593 229.969 84.4068 230.215 84.7143C230.46 85.0217 230.907 85.0753 231.218 84.8347L237.587 79.7548C237.877 79.5014 237.917 79.0647 237.677 78.7635C237.437 78.4623 237.003 78.4031 236.691 78.6292ZM220.489 71.5207V79.6687C220.475 79.9349 220.609 80.1873 220.837 80.3247C221.066 80.4622 221.351 80.4622 221.58 80.3247C221.808 80.1873 221.942 79.9349 221.928 79.6687V71.5207C221.942 71.2544 221.808 71.002 221.58 70.8646C221.351 70.7271 221.066 70.7271 220.837 70.8646C220.609 71.002 220.475 71.2544 220.489 71.5207Z" fill="white"/>
<path d="M312.043 84.1355C316.111 79.736 318.908 74.591 322.037 69.5405C322.181 69.3215 322.195 69.0414 322.073 68.8092C321.952 68.577 321.713 68.4293 321.451 68.4237C321.189 68.4182 320.944 68.5555 320.813 68.7824C317.734 73.7531 314.991 78.8267 310.987 83.159C310.782 83.3407 310.697 83.623 310.769 83.8873C310.841 84.1517 311.057 84.3523 311.326 84.4049C311.595 84.4576 311.87 84.3531 312.037 84.1355H312.043Z" fill="white"/>
<path d="M324.686 64.2947C325.16 63.419 325.559 62.5181 326.004 61.6298C326.183 61.2743 326.04 60.8414 325.684 60.6628C325.329 60.4842 324.896 60.6275 324.717 60.983C324.278 61.8587 323.877 62.747 323.419 63.608C323.27 63.9502 323.407 64.3494 323.735 64.528C324.063 64.7066 324.473 64.6053 324.679 64.2947H324.686Z" fill="white"/>
<path d="M14.6443 266.09C7.43294 276.451 2.82764 290.889 1.74404 303.875C1.69475 304.461 2.13006 304.977 2.71634 305.026C3.30262 305.075 3.81785 304.64 3.86714 304.054C4.91714 291.424 9.37964 277.384 16.3936 267.304C16.7294 266.821 16.61 266.157 16.1269 265.821C15.6439 265.485 14.9801 265.605 14.6443 266.088V266.09Z" fill="white"/>
<path d="M0.408315 312.963C0.246615 314.198 0.00721509 315.456 -0.0116849 316.706C-0.0163241 317.294 0.456598 317.774 1.04462 317.779C1.63263 317.783 2.11308 317.31 2.11772 316.722C2.11772 315.559 2.36132 314.391 2.51252 313.241C2.5401 312.687 2.13796 312.204 1.58819 312.132C1.03842 312.06 0.525106 312.421 0.408315 312.963Z" fill="white"/>
</g>
<defs>
<filter id="filter0_d_39_3301" x="-4.01172" y="-0.904297" width="453.432" height="428.388" filterUnits="userSpaceOnUse" color-interpolation-filters="sRGB">
<feFlood flood-opacity="0" result="BackgroundImageFix"/>
<feColorMatrix in="SourceAlpha" type="matrix" values="0 0 0 0 0 0 0 0 0 0 0 0 0 0 0 0 0 0 127 0" result="hardAlpha"/>
<feOffset dy="4"/>
<feGaussianBlur stdDeviation="2"/>
<feComposite in2="hardAlpha" operator="out"/>
<feColorMatrix type="matrix" values="0 0 0 0 0 0 0 0 0 0 0 0 0 0 0 0 0 0 0.25 0"/>
<feBlend mode="normal" in2="BackgroundImageFix" result="effect1_dropShadow_39_3301"/>
<feBlend mode="normal" in="SourceGraphic" in2="effect1_dropShadow_39_3301" result="shape"/>
</filter>
</defs>
</svg>
