<svg width="232" height="465" viewBox="0 0 232 465" fill="none" xmlns="http://www.w3.org/2000/svg">
<rect x="0.609375" y="0.743896" width="231" height="464" stroke="white"/>
<path fill-rule="evenodd" clip-rule="evenodd" d="M172.683 185.412L174.084 185.274C174.773 173.911 172.836 162.748 170.572 151.767L169.165 151.85C168.668 158.177 165.403 164.171 166.898 170.684C168.328 175.827 171.356 180.261 172.683 185.412ZM12.9014 128.185L13.7214 128.359C12.1938 125.491 13.6184 124.547 15.347 122.176L15.5352 122.607L16.2003 121.167C16.3323 120.801 16.4672 120.49 16.832 120.353C17.1883 118.561 18.2487 116.92 19.6611 116.029L19.9316 116.33C20.4914 115.845 21.1661 115.661 21.8086 115.436C20.4296 113.373 19.5426 110.697 18.6127 108.485C17.8556 106.162 16.6719 103.908 16.4494 101.553C16.6285 99.2889 18.7876 100.759 19.8407 101.888C23.0574 104.683 25.8278 109.111 27.9038 114.487C31.469 113.568 33.5141 114.538 34.5045 119.364C35.4161 122.643 36.348 126.006 36.471 129.406C36.9497 129.243 37.7988 128.631 38.2575 129.111C46.181 137.701 55.5367 144.319 64.5847 151.562C71.4218 146.578 74.9804 136.718 78.7405 129.316C85.301 116.612 91.8609 98.0123 108.735 98.0783C110.971 97.8473 113.155 97.5822 115.266 96.9387C116.084 96.7187 117.094 96.4536 117.372 95.9614C117.872 94.3768 117.967 92.6625 118.845 91.2094C121.258 87.3242 126.484 87.0189 130.58 87.8621C137.533 89.1392 137.358 88.3939 137.86 95.6402C138.011 97.36 139.356 97.6064 140.793 97.9628C142.424 98.4721 144.085 98.8885 145.762 99.224C145.588 99.1756 145.414 99.1277 145.239 99.0788C172.453 99.5061 190.522 130.784 194.107 152.912C198.27 175.551 192.885 200.746 184.372 219.76C184.738 226.685 183.367 233.641 182.498 240.466C181.954 242.173 180.068 242.34 179.528 240.362L178.863 237.759L178.152 240.35C177.701 241.953 176.976 242.144 176.323 242.155C175.514 242.155 175.07 241.759 175.044 239.675L173.703 239.355C173.187 240.33 172.673 241.193 171.862 241.792C170.23 253.548 169.205 265.772 165.244 277.147C163.664 281.369 161.238 285.202 159.456 289.343C167.857 308.129 169.265 328.947 171.282 349.062C171.12 349.074 170.286 349.147 170.108 349.162L170.568 350.373C171.196 350.637 171.566 351.191 171.756 351.805C172.18 351.771 173.947 351.784 173.849 352.185C173.644 354.548 172.976 356.234 171.708 357.465C171.691 357.844 171.667 358.231 171.638 358.589C174.152 367.281 175.994 376.547 177.113 386.101C178.537 387.458 178.893 391.92 176.77 393.11C170.911 397.108 163.04 399.006 155.63 398.285C147.61 397.534 138.045 394.368 141.883 385.305C141.933 385.023 142.322 385.01 142.629 385.071C143.309 384.418 144.046 383.923 144.843 383.646C146.428 379.726 147.853 375.616 149.095 371.512C149.701 369.627 150.327 367.678 150.275 365.612C149.976 360.536 149.448 358.438 145.888 354.441C143.685 355.49 139.485 347.888 138.523 346.293C136.498 341.572 136.576 349.04 136.576 349.04C135.734 351.956 135.401 356.827 133.294 358.997C132.147 366.554 139.991 370.015 134.937 378.395C136.648 378.511 136.807 379.189 136.777 381.247C136.783 382.725 136.822 384.276 136.54 385.657C136.199 387.355 134.618 387.81 132.245 388.31C130.322 388.731 128.47 389.213 126.562 389.668C124.632 390.304 122.598 390.252 121.805 388.317C112.246 391.527 84.6916 391.16 75.5786 386.906C73.0617 385.909 71.2868 385.344 73.5977 382.534C74.8704 374.515 97.8431 383.554 100.777 374.758C101.196 373.615 106.722 366.463 108.22 365.612C107.608 364.739 108.245 357.72 108.22 357.465C107.83 353.381 100.807 334.884 100.026 326.723C99.224 312.854 99.9762 301.161 95.7105 287.066C89.7483 264.749 78.1645 243.805 78.0084 220.189C78.2073 216.273 77.1118 212.105 78.105 208.263L76.8713 207.628C76.6941 207.83 76.373 207.825 76.3091 207.549C75.4997 206.248 76.4069 204.688 76.593 203.264C76.1697 202.814 76.3808 202.405 76.8918 202.16C82.3713 182.999 91.5359 180.2 89.0134 156.249C84.8966 164.889 75.7781 173.635 65.7268 172.349C55.6012 173.849 31.9813 149.414 27.4195 141.515C26.5834 141.579 26.5731 140.985 26.4459 140.426C22.2794 140.912 18.3795 137.672 18.3018 133.708C14.6456 135.954 10.7383 132.748 12.6756 128.831C12.7518 128.619 12.829 128.404 12.9014 128.185Z" fill="white"/>
<path fill-rule="evenodd" clip-rule="evenodd" d="M118.591 90.201C118.57 90.1179 118.453 90.1416 118.447 90.2202C118.331 91.8246 117.942 93.5175 117.35 95.0905C117.139 95.1246 116.935 95.2428 116.787 95.4722C116.587 95.7802 115.635 95.9952 115.138 96.1404L115.067 96.1613C113.003 96.7922 110.848 97.0474 108.708 97.2723C98.6393 97.8234 94.9746 100.947 89.2947 108.84C82.5526 117.732 78.7696 128.285 73.6868 138.099C72.4363 140.486 71.0859 142.816 69.6016 145.069L69.3889 145.39C68.0818 147.353 66.6319 149.328 64.6427 150.651C59.7426 146.584 54.5021 142.952 49.6547 138.822L49.2014 138.433C45.5644 135.32 42.091 132.022 38.7857 128.566C38.3959 128.158 37.6645 128.051 37.1238 128.29C36.9125 125.179 36.025 122.128 35.207 119.122C34.3479 115.251 32.8558 112.634 28.3544 113.592L28.2391 113.307C26.4398 108.89 24.0388 104.598 20.4428 101.369L20.2069 101.159C19.4248 100.456 18.3984 99.4476 17.2998 99.5389C16.3024 99.6203 15.79 100.514 15.7503 101.423C15.7046 102.501 16.1795 103.599 16.5196 104.609L16.5484 104.696C16.9868 106.023 17.4592 107.339 17.9586 108.645C18.4396 109.901 18.9547 111.145 19.4938 112.378C20.0435 113.409 20.4479 115.117 21.449 115.74C21.9658 116.044 22.4982 115.635 22.5532 115.112C22.6313 114.427 22.2331 113.825 21.9399 113.228C21.6696 112.679 21.4048 112.127 21.1473 111.573C20.1122 109.341 19.1835 107.062 18.3855 104.738L18.3616 104.663C18.0899 103.832 17.1882 101.901 17.5147 101.219C17.8517 101.222 18.5457 101.927 18.791 102.137C22.6498 105.301 25.1578 109.673 28.027 113.662C26.2266 114.172 24.2721 114.411 22.7766 115.607C19.7005 118.264 22.1707 123.525 26.2941 122.546C25.1432 124.967 24.1534 128.878 26.193 131.065C26.8061 131.634 27.9971 131.452 28.1836 130.546C28.3827 129.583 28.1438 128.759 27.9247 127.826C27.5277 125.927 27.287 123.981 27.5576 122.048L27.6426 121.998C28.3415 121.578 28.781 121.107 28.7599 120.239C28.8509 119.611 28.175 118.765 27.4964 119.278C27.2758 119.444 27.0068 119.457 26.775 119.625C26.3815 119.995 25.8928 120.287 25.3351 120.282L25.2809 120.28C24.5638 120.275 24.0344 119.847 23.8153 119.183C23.2149 117.361 25.2936 116.748 26.6454 116.398L26.9945 116.291C30.6843 115.175 32.0216 115.157 32.9488 119.449L33.0599 119.805C34.0197 122.895 34.9011 126.056 36.5361 128.874L36.2714 129.5C34.5728 133.495 32.4268 138.044 27.8847 139.266C27.7224 137.922 26.2532 137.873 25.1898 137.907C23.8173 137.833 22.4398 137.144 21.4702 136.153C20.6233 135.309 20.1974 134.133 19.2606 133.38C19.6846 132.426 18.727 131.373 17.7267 131.922C17.0523 132.291 16.6451 132.817 15.8312 132.924C15.11 133.02 14.4455 132.77 13.8976 132.313C12.4676 131.117 13.1478 129.359 12.7977 127.793C13.2586 128.583 14.0242 129.188 14.8439 129.606C20.3167 132.704 20.2616 126.629 17.2371 127.627C13.9516 126.888 14.0071 125.712 15.2352 122.953L15.2688 122.854C15.4735 122.269 15.895 121.273 15.4885 120.661C15.4657 120.63 15.4244 120.62 15.3945 120.648C15.0187 121.014 14.8708 121.627 14.5536 122.058L14.2519 122.414C13.0814 123.802 11.8088 125.461 12.5715 127.33C12.4918 127.313 12.4049 127.347 12.3779 127.443C12.0249 128.714 11.3236 129.962 11.4687 131.321C11.7721 134.3 15.0348 135.936 17.7366 134.694C18.2561 138.524 22.0717 141.28 25.8956 141.11C26.0166 141.634 26.4093 142.096 27.0169 142.144C32.6445 151.067 54.7659 174.023 65.6148 173.063C66.6519 173.529 67.9723 173.296 69.0711 173.155C77.4964 172.067 84.5373 165.968 88.4653 158.74C89.909 182.418 81.7504 182.131 76.2909 201.747C75.7443 202.086 75.4255 202.827 75.8493 203.453C75.6155 204.639 75.1355 205.856 75.3205 207.073C75.4116 207.421 75.5949 207.738 75.7616 208.056C76.1037 208.705 77.0075 208.626 77.4303 208.122C76.7131 210.691 77.0192 213.387 77.2031 216.006C77.3153 217.544 77.307 219.061 77.3081 220.6C77.5225 244.035 89.0886 265.166 95.0346 287.399C96.7167 293.632 98.0088 299.981 98.5165 306.42C99.0559 313.268 98.6804 320.155 99.3292 326.995C100.095 335.08 102.309 342.932 104.894 350.612C104.718 351.055 104.915 351.618 105.328 351.902C105.469 352.316 105.61 352.727 105.751 353.139C105.521 354.237 105.465 355.338 105.512 356.474C105.551 358.102 106.067 359.716 105.852 361.342C105.685 362.054 105.101 362.736 105.472 363.499L105.303 363.605C104.322 364.229 103.384 364.913 102.74 365.877C102.599 366.088 102.492 366.523 102.332 366.672C102.163 366.827 101.851 366.845 101.644 366.918C100.599 367.233 99.9419 368.166 100.032 369.25C97.5849 369.946 98.4282 372.406 95.9029 374.117C93.3104 375.976 89.7996 376.18 86.7377 376.663L81.5199 377.486L81.2043 377.524C77.7686 377.944 73.3168 378.763 72.8985 382.855C72.2558 383.294 72.0364 384.191 71.8514 384.901C71.7086 385.462 71.7225 386.042 72.1391 386.485C72.6302 387.008 73.5029 387.222 74.1478 387.501C74.9911 387.83 75.7249 388.395 76.6387 388.553C77.7308 389 78.9368 389.262 79.9323 389.446C90.8973 391.454 102.149 391.939 113.248 390.881C115.061 390.708 116.872 390.497 118.675 390.241L118.89 390.21C119.787 390.076 120.714 389.897 121.534 389.516C122.68 391.425 124.887 391.185 126.744 390.643C128.203 390.286 129.661 389.934 131.12 389.582C133.377 388.98 136.693 388.856 137.25 386.081C137.531 384.681 137.513 383.123 137.499 381.7L137.501 381.275C137.505 380.072 137.424 378.413 136.037 378.157C137.942 374.665 137.527 370.372 135.753 366.91L135.659 366.74C134.353 364.371 133.538 362.393 133.971 359.594C134.841 358.783 135.246 357.62 135.568 356.476C136.472 353.249 137.227 349.978 137.809 346.679C139.151 349.182 140.771 351.534 142.591 353.72C143.315 354.741 143.908 355.071 145.08 355.468C145.262 355.544 145.447 355.545 145.621 355.496C146.706 356.952 148.023 358.105 148.593 359.843C149.215 361.765 149.453 363.879 149.575 365.888C149.64 368.506 148.538 370.978 147.846 373.465C146.762 376.896 145.551 380.289 144.208 383.631C143.329 383.836 141.999 383.734 141.678 384.776C141.472 384.899 141.303 385.097 141.214 385.385L141.138 385.63C140.496 387.737 139.952 390.172 140.786 392.284C143.09 397.4 150.497 398.676 155.564 399.289C163.067 399.994 170.938 398.22 177.184 393.988C178.066 393.376 178.668 392.679 178.814 391.594L178.837 391.391C179.032 389.591 179.062 387.474 177.805 386.085C176.718 376.882 174.935 367.683 172.369 358.768C172.389 358.516 172.404 358.264 172.417 358.011C173.85 356.534 174.411 354.456 174.571 352.46C174.547 351.292 173.042 351.394 172.199 351.196C170.069 330.381 168.844 308.916 160.244 289.497C161.958 285.576 164.276 281.837 165.814 277.816L165.923 277.529C166.56 275.878 166.947 274.195 167.452 272.511C167.781 271.704 168.052 270.887 168.184 270.022C170.207 260.861 171.35 251.541 172.544 242.249C173.347 241.591 173.878 240.644 174.343 239.772L174.347 239.993C174.382 241.406 174.615 242.99 176.403 242.949C177.875 242.914 178.52 241.826 178.85 240.623C179.491 243.139 182.341 243.276 183.177 240.799C183.55 239.8 183.534 238.66 183.645 237.612C184.241 231.858 185.483 226.109 185.126 220.315C185.502 220.188 185.829 219.904 185.988 219.43C193.103 198.092 199.435 175.258 194.816 152.742C190.198 130.683 177.691 105.988 154.055 99.733C149.27 98.5357 144.41 98.1298 139.505 97.8207C138.797 96.4649 138.34 94.9227 138.247 93.3882C138.219 92.9449 138.24 92.506 138.241 92.0627C138.243 91.653 138.066 91.1646 138.149 90.7823C138.169 90.6888 138.041 90.658 138.006 90.7438C137.903 91.0128 137.691 91.1481 137.547 91.3741C137.189 92.0149 137.095 92.775 137 93.4905C136.642 96.3164 137.471 99.2254 139.219 101.479L139.316 101.607C139.866 102.321 140.816 103.414 141.797 102.842C142.728 102.297 142.093 101.174 141.541 100.607C140.808 99.8524 140.193 99.0461 139.694 98.1666C141.913 98.7524 144.115 99.397 146.328 100.007L146.486 100.093C148.218 101.019 150.738 102.023 150.513 104.315C145.905 118.081 125.522 121.618 112.923 118.331C110.447 117.678 107.944 116.615 106.259 114.634L106.191 114.553C103.278 111.14 103.502 105.5 107.148 102.698C109.314 100.942 112.306 100.009 115.008 99.4008C114.222 100.693 112.484 101.605 112.168 103.135C112.087 103.661 112.38 104.16 112.965 104.171C114.45 104.2 115.546 102.629 116.326 101.573C117.953 99.3656 118.876 96.6965 119.073 93.9778C119.172 92.6551 118.926 91.4632 118.591 90.201ZM142.674 388.02C142.635 388.854 143.049 389.789 144.051 389.751C144.781 390.686 145.874 391.301 146.888 391.904C153.591 395.539 162.021 395.698 169.118 393.089C171.035 392.37 172.884 391.473 174.589 390.343L174.749 390.238C175.609 389.676 176.598 389.097 177.208 388.283L177.187 388.951C177.156 389.896 177.102 390.768 176.798 391.651C176.611 392.032 176.242 392.242 175.893 392.462C175.115 392.953 174.312 393.408 173.491 393.828C164.935 398.121 153.938 398.786 145.343 394.271C142.876 392.899 141.832 390.73 142.674 388.02ZM134.69 378.91C134.696 379.014 134.801 379.1 134.909 379.069C135.767 378.823 135.252 380.677 135.2 380.977C135.027 381.957 134.917 382.942 134.808 383.931L134.806 384.119C134.778 386.086 134.58 386.1 132.591 386.479C130.937 386.901 129.296 387.383 127.649 387.834L126.99 388.013C126.287 388.212 123.063 389.326 123.095 387.987L123.097 387.946C123.161 387.069 122.011 386.708 121.42 387.228L121.397 387.249C120.256 388.323 118.628 388.413 117.14 388.599L117.066 388.608C115.162 388.852 113.249 389.049 111.336 389.201C101.267 389.996 91.0961 389.536 81.1488 387.803L80.5016 387.689C79.6339 387.533 78.3869 387.285 77.3858 386.808C77.0031 386.776 75.06 385.844 75.1316 385.44C75.0977 385.38 75.0677 385.321 75.0416 385.259C74.6617 384.85 74.6739 383.99 75.1722 383.666C76.0032 383.881 76.8331 384.091 77.6669 384.295L77.668 384.298C78.5102 384.94 79.6612 384.939 80.6777 385.162C81.776 385.356 82.8758 385.539 83.9774 385.713C90.2868 386.694 96.65 387.389 103.032 387.684C114.321 388.657 125.367 385.097 134.69 378.91ZM171.415 204.964C170.738 206.612 171.223 208.742 171.721 210.444C170.954 210.867 170.427 211.59 169.772 212.151C167.497 213.969 165.183 215.741 162.905 217.557L162.807 217.633C162.137 218.154 161.395 218.669 161.127 219.511C160.501 222.282 164.194 223.037 166.274 222.84C166.66 222.824 167.764 222.573 168.028 222.837C168.181 222.989 168.118 223.669 168.131 223.872C168.276 226.072 168.393 228.274 168.549 230.474L168.611 231.298C168.737 232.966 168.74 234.848 169.406 236.431C169.55 237.385 169.951 238.349 170.049 239.293C170.139 240.136 170.339 241.062 170.909 241.691L170.383 245.792C169.392 253.483 168.346 261.172 166.715 268.758C166.35 270.461 165.846 272.106 165.379 273.782C164.034 278.616 161.509 282.992 159.279 287.462L159.193 287.637C158.443 289.178 157.946 290.655 158.091 292.409C158.181 293.485 159.888 293.492 159.799 292.409C159.737 291.68 159.813 291.01 159.972 290.37C163.514 304.43 166.089 318.708 167.418 333.145C167.954 339.091 168.347 345.024 169.06 350.958C167.229 350.941 165.386 351.118 163.621 351.425C160.586 350.556 156.965 350.836 154.224 352.392C152.531 352.568 150.847 352.795 149.171 353.089L148.812 353.153C148.031 353.297 146.894 353.308 146.282 353.869C146.043 352.758 145.224 351.969 144.504 351.137C143.846 350.352 143.227 349.54 142.641 348.704C141.026 346.425 139.688 343.967 138.556 341.422C138.571 341.022 138.402 340.704 138.136 340.48C133.543 330.027 130.693 318.928 128.163 307.838C122.356 282.926 117.367 257.811 114.372 232.404C114.359 232.287 114.187 232.281 114.186 232.404C113.576 251.223 116.874 269.863 120.854 288.195C124.922 306.311 128.076 324.833 135.535 341.973C134.985 345.471 134.331 348.951 133.475 352.389C125.122 350.166 116.427 349.31 107.793 349.646C104.078 339.139 101.698 328.167 101.891 316.996C102.316 297.564 96.0717 279.014 89.3696 260.999C84.7434 247.112 79.1112 233.178 78.4946 218.414C78.2085 214.994 77.1531 211.544 77.8575 208.111C79.124 209.626 80.9366 210.731 82.7109 211.544C85.6889 212.909 88.8791 213.747 92.0738 214.447C108.364 218.574 125.475 218.569 141.807 214.653L143.021 214.376C152.741 212.152 162.6 209.67 171.415 204.964ZM172.495 212.463C174.612 216.278 179.034 218.627 183.248 219.479C183.402 219.977 183.882 220.301 184.408 220.376C183.598 226.724 182.284 233.006 181.585 239.369L181.544 239.607C181.474 240.01 181.373 240.442 181.064 240.717C180.643 240.551 180.636 239.861 180.584 239.479C180.419 237.274 180.226 235.069 180.034 232.866C179.957 231.901 178.357 231.53 178.202 232.621L177.519 237.443L177.508 237.493C177.343 238.277 177.288 240.985 176.513 241.103L176.486 241.106C176.007 241.178 176.189 240.222 176.19 239.876L176.147 237.371L176.092 234.148C176.082 233.611 176.072 233.073 176.061 232.536C176.035 231.351 174.353 231.404 174.237 232.536L174.186 233.015C173.955 235.182 173.64 237.479 172.561 239.384C172.359 239.247 172.077 239.213 171.814 239.283C171.723 237.863 171.413 236.508 170.84 235.208C171.008 233.827 170.852 232.352 170.782 231.02L170.775 230.877C170.692 229.164 170.588 227.452 170.489 225.74L170.43 224.712C170.347 223.22 170.476 221.326 168.766 220.698C167.096 220.181 165.203 221.035 163.606 220.15C165.474 218.503 167.387 216.995 169.293 215.397C169.974 214.835 170.685 214.294 171.333 213.692C171.743 213.314 172.072 212.832 172.495 212.463ZM169.885 151.87L170.455 154.776C171.401 159.621 172.312 164.471 172.884 169.378C173.482 174.652 173.638 179.955 173.385 185.255C172.08 180.123 169.028 175.61 167.603 170.522C166.146 164.202 169.423 158.118 169.885 151.87ZM20.2993 115.036C20.378 114.982 20.3347 114.824 20.2282 114.867C16.19 116.524 14.5415 122.458 17.5814 125.727C18.5904 126.78 20.103 127.389 21.4804 126.836C23.1538 126.557 24.1394 124.899 24.3711 123.355L24.3788 123.302C24.3936 123.229 24.3113 123.196 24.2646 123.242L24.2563 123.251C23.6167 124.032 22.6084 124.555 21.6894 124.954C21.432 124.816 21.1501 124.706 20.8671 124.641C20.4644 124.551 20.0517 124.864 20.0902 125.271C18.1893 124.926 17.4274 122.687 17.3696 120.988L17.368 120.936C17.2913 118.585 18.3656 116.411 20.2993 115.036Z" fill="#271969"/>
<path fill-rule="evenodd" clip-rule="evenodd" d="M123.87 34.4604C117.498 34.4604 109.855 37.5147 109.205 37.5758L109.188 37.5766C108.846 37.5766 107.51 38.5832 105.18 40.5964L107.703 45.4644L107.499 45.6572C106.522 46.5839 105.687 47.4285 105.029 48.0943C99.6514 53.5309 98.6848 74.8761 99.9525 82.3198C101.22 89.764 103.567 97.0477 114.494 97.0477C125.422 97.0477 137.58 90.55 139.452 88.526C140.701 87.1774 142.103 86.5312 143.66 86.5872C143.724 86.5075 143.787 86.4277 143.85 86.3485L144.079 86.3166C146.233 86.0081 147.776 85.5928 148.709 85.0709C150.531 84.0518 152.533 78.6931 152.533 77.5128C152.533 76.3446 155.523 67.8433 155.582 66.9435L155.584 66.9187C155.584 66.1668 159.49 62.7096 159.49 61.6117C159.49 60.514 160.277 60.5805 159.49 56.7118L159.261 55.5751C158.423 51.4559 156.783 44.6352 150.531 41.6714C143.66 38.4145 130.304 34.4604 123.87 34.4604Z" fill="white"/>
<path fill-rule="evenodd" clip-rule="evenodd" d="M151.594 41.5159C148.167 37.9189 128.713 32.3553 118.87 33.5346L118.575 33.5724C117.789 33.6709 117.016 33.8201 116.252 34.0227C113.782 34.593 111.232 35.4566 109.191 36.8991C107.488 38.0792 102.114 40.0063 103.698 43.0933C103.111 44.1936 102.892 45.5529 103.289 46.6366C103.339 47.0109 103.455 47.3556 103.605 47.7131C102.35 49.544 101.357 51.6144 100.553 53.5838C99.1474 58.5398 98.273 63.6977 98.1453 68.7544C97.7192 78.3613 98.7841 89.837 107.245 96.0493C112.356 99.9862 120.362 100.118 126.106 95.2375C126.432 94.8558 127.966 93.8267 127.454 93.6458C127.302 93.8047 127.145 93.9598 126.986 94.1116C126.993 94.0946 126.995 94.0781 126.991 94.0599L127.141 93.9252C127.423 93.6672 127.79 93.2927 127.373 93.3658C127.355 93.3873 127.335 93.4054 127.315 93.4263C127.226 93.4786 127.16 93.5242 127.108 93.5644L127.081 93.5853L127.09 93.577C127.33 93.324 127.473 93.0655 127.115 93.2305L127.067 93.2536C126.907 93.4192 126.746 93.5787 126.58 93.7332C126.583 93.7151 126.58 93.6964 126.57 93.6771L126.724 93.5297C126.875 93.3845 126.851 93.3834 126.778 93.2663C127.097 92.8235 126.501 93.0864 126.46 93.2591C126.086 93.1717 125.759 93.8641 125.519 93.9483C114.99 101.954 99.7096 94.8508 99.9568 72.5434L99.9607 72.1072C100.033 64.9743 100.64 57.6428 103.623 51.186C103.914 50.564 104.238 49.9589 104.595 49.3735C104.841 48.9345 105.105 48.5067 105.387 48.0902C106.18 48.0268 106.963 47.8834 107.734 47.661C107.999 47.5949 108.26 47.5217 108.522 47.4359C112.347 47.6422 116.086 47.8666 119.922 48.0794L121.12 48.1531C124.369 48.3597 127.729 48.6906 130.351 50.678C132.924 52.4873 132.936 56.0555 135.138 58.0415C138.278 60.1497 138.301 62.0499 138.906 65.1563C138.861 67.4977 137.219 70.9 140.232 71.8856C139.723 72.6022 140.432 72.2579 140.488 72.0066C140.493 72.0077 140.499 72.0093 140.503 72.0093C140.051 72.842 140.717 72.3179 140.775 72.05C140.811 72.0401 140.847 72.0148 140.882 71.9796C140.425 72.7095 141.163 72.1985 141.12 72.0654C142.001 70.7251 143.816 70.5172 145.096 70.8725C145.111 70.9203 145.168 70.9242 145.203 70.8989C150.643 72.0649 149.239 83.2007 143.665 82.1238C143.426 82.076 143.432 82.1893 143.385 82.2003C143.514 81.8659 143.151 82.0017 143.155 82.0721L143.132 82.071C143.115 82.0694 143.122 82.0677 143.109 82.0721C143.234 81.3885 142.533 82.379 142.588 82.4197C142.567 82.4071 142.542 82.3999 142.521 82.3972L142.545 82.3323C142.661 82.0259 142.651 82.153 142.651 81.9775C142.738 81.7608 142.745 81.8554 142.724 81.7146C142.417 81.4792 142.326 82.1926 142.224 82.2448C142.4 82.0028 142.26 81.8054 142.094 81.9368C140.839 84.5482 139.217 87.0018 137.121 88.9345C136.892 89.1132 136.66 89.2892 136.42 89.4553C135.528 90.2231 134.161 90.717 133.326 91.3974C133.326 91.4084 133.332 91.4227 133.341 91.4364L133.321 91.454L133.302 91.4716L133.012 91.6097C132.926 91.6817 132.85 91.762 132.781 91.8506C132.709 91.9336 132.645 92.0249 132.591 92.1217C132.564 92.24 132.623 92.2895 132.737 92.2389C132.787 92.2218 132.837 92.202 132.887 92.1839C132.884 92.1883 132.882 92.191 132.88 92.1938C132.863 92.218 132.753 92.4715 132.88 92.4303L132.895 92.4248C132.965 92.3989 133.035 92.3709 133.103 92.3445C133.022 92.444 132.948 92.5524 132.882 92.6442C132.813 92.7157 132.77 92.8004 132.753 92.8961C132.756 92.9495 132.786 92.972 132.84 92.9649C132.922 92.9379 133.003 92.9099 133.085 92.8802L133.061 92.9242C133.004 93.0358 132.922 93.2228 133.067 93.1607C133.191 93.1227 133.311 93.0787 133.43 93.0309C133.44 93.0507 133.46 93.0578 133.5 93.0397C133.88 92.906 134.247 92.7427 134.598 92.5496C134.907 92.3274 135.219 92.1091 135.529 91.8885C135.821 91.7153 136.103 91.5228 136.371 91.3061C138.171 90.1566 139.746 88.6963 140.996 87.07C143.086 88.8602 147.265 87.1503 149.85 85.7489C152.137 84.4965 153.035 82.181 153.268 79.684C153.75 76.323 156.528 75.1724 156.335 67.7974C156.339 67.7991 156.343 67.7991 156.349 67.7991C156.45 67.7694 156.548 67.7303 156.641 67.6792C156.736 67.6346 156.826 67.5807 156.91 67.5164L157.014 67.3739C157.068 67.3448 157.116 67.3134 157.153 67.2826L157.172 67.3068C157.233 67.3794 157.192 67.2705 157.188 67.2491L157.369 67.006C157.797 66.4285 158.266 65.78 158.649 65.2619L158.66 65.2828C158.669 65.2988 158.674 65.3103 158.67 65.3153C159.58 64.0222 160.436 62.4608 160.673 60.9488C160.954 59.7845 160.844 58.5844 160.6 57.5058C159.549 53.728 156.11 45.1797 151.594 41.5159ZM126.9 93.7574L126.956 93.7074L126.906 93.7695C126.88 93.8014 126.853 93.8306 126.81 93.8597C126.812 93.8498 126.812 93.8399 126.811 93.8289C126.84 93.8069 126.87 93.7827 126.9 93.7574ZM118.914 35.4327C125.589 34.8652 132.154 36.3193 138.522 38.0796L138.962 38.2045C142.584 39.2265 146.413 40.1461 149.473 42.3335C153.75 45.5724 155.957 50.7248 157.884 55.482C159.567 59.0167 158.707 63.002 156.171 65.4704C155.907 63.0174 155.458 60.637 154.755 58.2753C154.608 57.9062 154.719 57.7852 154.403 57.7374C153.925 64.1014 156.277 68.8039 151.623 76.3466C149.603 79.9057 151.941 82.5094 146.238 84.3827L146.084 84.441C144.896 84.8843 143.598 85.2341 142.435 84.986L142.539 84.8183C142.645 84.6456 142.677 84.562 142.523 84.4883C142.527 84.4795 142.532 84.4712 142.539 84.4613C142.664 84.2276 142.784 83.9916 142.9 83.7524C142.946 83.7678 142.994 83.7788 143.042 83.7914C143.011 83.8492 143.006 83.9069 143.095 83.9267C143.408 84.0329 143.73 84.0758 144.06 84.0554L144.131 84.0505C144.503 84.0279 144.737 83.9608 144.947 83.8987C145.017 83.8871 145.087 83.8761 145.155 83.8618C145.83 83.7139 146.545 83.3371 147.008 82.9642C152.28 80.0025 151.735 69.9199 145.236 68.9667C145.103 62.6192 142.05 51.9092 136.982 45.8602C132.402 40.2962 119.899 37.8846 111.2 38.7349C111.073 38.7764 110.946 38.8184 110.82 38.8607C109.477 38.9786 108.198 39.5699 106.855 39.8446C107.819 39.1299 108.914 38.6539 110.04 38.2493C112.286 36.8912 114.859 36.1564 117.346 35.6382C117.861 35.5129 118.383 35.4439 118.914 35.4327ZM145.533 74.0663C145.184 73.8788 145.224 74.0603 145.144 74.0075C142.63 73.8045 139.919 75.9814 138.515 77.7953C138.625 77.9097 138.926 77.572 138.978 77.5181C138.985 77.5253 138.994 77.5308 139.002 77.5341L138.963 77.5885C138.394 78.3965 139.523 77.4455 139.628 77.2497C139.647 77.2596 139.666 77.2651 139.687 77.2607C139.597 77.3476 139.324 77.5742 139.277 77.7348L139.204 77.7948C138.521 78.3734 138.578 78.809 139.354 77.9867C139.336 78.0247 139.328 78.0599 139.341 78.0885L139.314 78.1061C138.933 78.3695 138.619 79.1043 139.417 78.3497C139.333 78.9008 140.207 77.836 140.234 77.8432C141.745 76.6706 143.97 75.5299 145.865 75.3764L145.931 75.3693C146.278 75.3253 146.443 75.223 146.32 74.998C146.749 74.8974 146.648 74.6889 146.445 74.6955C146.748 74.4992 146.476 74.3111 146.3 74.3848C146.421 74.0548 145.938 74.2742 145.893 74.2286C145.643 73.8458 145.575 74.1648 145.533 74.0663ZM150.803 53.6133C149.595 53.176 146.029 54.4852 146.314 56.2194C146.484 56.617 147.044 56.8453 147.438 56.6203L147.951 56.2793C148.845 55.6877 149.651 55.1687 150.61 54.6525C151.132 54.3963 151.357 53.8523 150.803 53.6133ZM143.933 51.0366L144.4 50.7365C146.916 49.1079 150.473 46.6402 144.165 49.1934C143.446 49.4983 142.49 49.6787 142.098 50.3558C141.482 51.6039 143.104 51.6877 143.933 51.0366ZM143.651 43.7293C143.852 42.9716 141.34 43.8608 140.609 44.0952L140.498 44.1368C139.786 44.399 138.971 44.6422 138.545 45.2493C138.046 46.0883 139.056 46.2621 139.681 45.8832C140.962 45.0549 142.368 44.43 143.651 43.7293ZM137.262 40.1995C138.676 38.6722 134.891 40.1353 134.324 40.5414L134.308 40.5533C133.885 40.8479 133.971 41.4822 134.368 41.6685C135.499 41.6898 136.331 40.7577 137.262 40.1995ZM130.826 38.5261C133.075 36.9283 130.113 37.6883 129.084 38.3145C128.383 38.9259 129.106 39.9581 130.826 38.5261Z" fill="#271969"/>
<path fill-rule="evenodd" clip-rule="evenodd" d="M110.29 82.3333C110.192 82.3069 110.105 82.4384 110.187 82.5099C110.522 82.8041 110.734 83.3514 110.979 83.7248C111.211 84.0801 111.435 84.4316 111.64 84.8034C111.869 85.2203 112.09 85.635 112.269 86.0761L112.304 86.1652C112.251 86.2906 112.209 86.4149 112.178 86.4963L112.169 86.5194C111.865 87.2888 112.504 88.1446 113.226 88.3597C114.46 88.7276 115.519 87.725 115.548 86.5331C115.572 85.5954 114.929 84.7599 114.276 84.1401C113.705 83.5978 113.065 83.1363 112.349 82.7981C112.034 82.649 111.705 82.5247 111.363 82.4521C111.012 82.3784 110.634 82.4252 110.29 82.3333ZM112.617 85.7318C112.526 85.7741 112.449 85.877 112.384 85.9974C112.416 85.8957 112.484 85.7939 112.617 85.7318ZM111.845 72.7023C110.77 73.3485 109.133 74.8544 110.289 76.4555C111.649 77.8673 113.608 76.2487 114.574 75.5166C115.469 74.949 116.474 76.4087 115.644 77.0709C108.668 82.1782 105.838 72.8711 111.301 71.9427C111.903 71.8404 112.126 72.5026 111.845 72.7023ZM120.677 66.5005L120.487 66.4845C119.663 66.413 118.83 66.3036 118.018 66.4878C116.927 66.7353 117.007 68.305 118.018 68.5932C118.909 68.8479 119.896 68.7379 120.816 68.7467C120.96 68.7478 121.105 68.7516 121.25 68.7538C121.278 69.0943 121.391 69.3874 121.564 69.68C121.688 69.8907 121.845 70.0903 122.001 70.2768C122.37 70.7206 123.241 70.7107 123.614 70.2768C123.89 69.9556 124.11 69.5865 124.113 69.1515C124.114 69.0404 124.1 68.9221 124.074 68.8061L124.576 68.8149C125.804 68.833 127.042 68.8248 128.249 68.6317C128.678 68.7197 129.029 67.9541 128.436 67.7248C126.827 67.1016 125.027 66.9185 123.319 66.7315C122.44 66.6352 121.558 66.5692 120.677 66.5005ZM106.959 65.857L106.915 65.8526C105.849 65.7442 104.674 65.5578 103.607 65.665C102.012 65.8256 102.015 67.9569 103.607 68.1164C104.191 68.1747 104.807 68.1461 105.42 68.09C105.107 68.7483 105.479 69.5348 106.235 69.6349C106.937 69.7284 107.666 69.0536 107.435 68.3292L107.424 68.2973C107.379 68.1714 107.339 68.0311 107.291 67.8925L107.545 67.8711C108.305 67.8051 109.36 67.6692 109.639 67.0758C109.724 66.897 109.704 66.7309 109.574 66.578C109.042 65.951 107.728 65.9301 106.959 65.857ZM118.29 60.9768C117.519 60.6996 116.717 61.3481 116.617 62.079C116.502 62.9211 117.116 63.4755 117.895 63.5761L117.934 63.5805C119.652 63.7681 121.357 64.1102 123.078 64.3038C123.859 64.3912 124.647 64.449 125.433 64.4699L125.996 64.4825C126.684 64.4996 127.423 64.515 128.059 64.2807L128.057 64.2763C128.226 64.2279 128.304 63.987 128.115 63.8555C127.438 63.382 126.525 63.2027 125.737 62.9777C124.945 62.7511 124.146 62.5427 123.346 62.3469C121.665 61.9355 119.918 61.562 118.29 60.9768ZM111.177 61.1737C110.973 60.1084 109.447 59.994 108.886 60.7695C108.524 60.8921 107.993 61.0208 107.664 61.1171C107.09 61.2854 106.516 61.4526 105.941 61.6143C104.75 61.9498 103.588 62.3749 102.417 62.7715C102.297 62.8127 102.33 62.964 102.446 62.9788C104.08 63.1895 105.687 63.2874 107.331 63.2197L107.668 63.2049C109.117 63.1488 111.576 63.2555 111.177 61.1737Z" fill="#271969"/>
</svg>
